<svg xmlns="http://www.w3.org/2000/svg" width="35.5" height="32.476" viewBox="0 0 35.5 32.476">
  <path id="Icon_awesome-github" data-name="Icon awesome-github" d="M11.874,26.712c0,.134-.165.242-.372.242-.236.02-.4-.087-.4-.242,0-.134.165-.242.372-.242C11.688,26.45,11.874,26.557,11.874,26.712Zm-2.226-.3c-.05.134.093.289.308.329.186.067.4,0,.444-.134s-.093-.289-.308-.349A.378.378,0,0,0,9.648,26.41Zm3.164-.114c-.208.047-.351.175-.329.329.021.134.208.222.422.175s.351-.175.329-.309S13.019,26.275,12.811,26.3ZM17.521.563C7.594.563,0,7.634,0,16.948A16.95,16.95,0,0,0,12.132,33.011c.916.154,1.238-.376,1.238-.813,0-.416-.021-2.713-.021-4.123,0,0-5.01,1.007-6.062-2,0,0-.816-1.954-1.99-2.458,0,0-1.639-1.054.115-1.034a3.828,3.828,0,0,1,2.763,1.733,3.926,3.926,0,0,0,5.218,1.4,3.65,3.65,0,0,1,1.145-2.263c-4-.416-8.038-.96-8.038-7.42a4.935,4.935,0,0,1,1.689-3.955,5.981,5.981,0,0,1,.186-4.56c1.5-.436,4.939,1.813,4.939,1.813a17.982,17.982,0,0,1,8.99,0s3.443-2.256,4.939-1.813a5.978,5.978,0,0,1,.186,4.56,5.081,5.081,0,0,1,1.847,3.955c0,6.48-4.216,7-8.217,7.42a3.845,3.845,0,0,1,1.217,3.116c0,2.263-.021,5.063-.021,5.614,0,.436.329.967,1.238.813A16.784,16.784,0,0,0,35.5,16.948C35.5,7.634,27.448.563,17.521.563ZM6.957,23.723c-.093.067-.072.222.05.349.115.107.279.154.372.067.093-.067.072-.222-.05-.349C7.215,23.683,7.05,23.636,6.957,23.723Zm-.773-.544c-.05.087.021.195.165.262a.222.222,0,0,0,.308-.047c.05-.087-.021-.195-.165-.262C6.348,23.092,6.234,23.112,6.184,23.18ZM8.5,25.57c-.115.087-.072.289.093.416.165.154.372.175.465.067.093-.087.05-.289-.093-.416C8.811,25.483,8.6,25.463,8.5,25.57Zm-.816-.987c-.115.067-.115.242,0,.4s.308.222.4.154a.293.293,0,0,0,0-.416A.3.3,0,0,0,7.687,24.583Z" transform="translate(0 -0.563)"/>
</svg>
